<svg width="1848" height="419" viewBox="0 0 1848 419" fill="none" xmlns="http://www.w3.org/2000/svg">
<path d="M498.791 158.941C518.225 158.941 537.414 161.822 556.359 167.584L562.365 169.342L550.354 203.326L544.787 201.715C527.111 196.832 510.998 194.391 496.447 194.391C482.092 194.391 469.787 196.734 459.533 201.422C449.377 206.109 444.299 212.115 444.299 219.439C444.299 224.225 446.545 228.424 451.037 232.037C455.627 235.65 461.535 238.727 468.762 241.266C475.988 243.707 483.947 246.148 492.639 248.59C501.428 251.031 510.217 253.863 519.006 257.086C527.795 260.309 535.803 264.02 543.029 268.219C550.256 272.418 556.115 278.033 560.607 285.064C565.197 291.998 567.492 300.006 567.492 309.088C567.492 314.947 566.467 320.758 564.416 326.52C562.463 332.184 559.094 337.799 554.309 343.365C549.621 348.932 543.762 353.814 536.73 358.014C529.797 362.115 520.91 365.484 510.07 368.121C499.328 370.66 487.268 371.93 473.889 371.93C460.51 371.93 448.449 370.709 437.707 368.268C426.965 365.729 415.588 362.115 403.576 357.428L398.156 355.377L410.607 319.928L416.32 322.125C441.027 330.914 461.389 335.309 477.404 335.309C492.443 335.309 504.602 333.014 513.879 328.424C523.254 323.834 527.941 317.779 527.941 310.26C527.941 306.061 526.525 302.301 523.693 298.98C520.861 295.66 517.053 292.877 512.268 290.631C507.482 288.287 501.965 286.139 495.715 284.186C489.562 282.232 483.068 280.328 476.232 278.473C469.396 276.617 462.561 274.615 455.725 272.467C448.889 270.318 442.346 267.73 436.096 264.703C429.943 261.676 424.475 258.258 419.689 254.449C414.904 250.641 411.096 245.904 408.264 240.24C405.432 234.479 404.016 228.082 404.016 221.051C404.016 203.473 412.609 188.727 429.797 176.812C447.082 164.898 470.08 158.941 498.791 158.941ZM688.049 160.846H728.479L810.803 369H772.863L749.572 314.508H664.611L641.32 369H605.578L688.049 160.846ZM736.682 280.67L707.092 203.473L677.355 280.67H736.682ZM855.773 160.846H900.598L969.738 280.377L1039.9 160.846H1082.53V369H1045.62V213.287L986.438 309.381H951.574L892.688 213.287V369H855.773V160.846ZM1214.81 160.846H1255.24L1337.56 369H1299.62L1276.33 314.508H1191.37L1168.08 369H1132.34L1214.81 160.846ZM1263.44 280.67L1233.85 203.473L1204.11 280.67H1263.44ZM1543.81 220.465C1543.81 227.105 1542.98 233.453 1541.32 239.508C1539.76 245.465 1537.22 251.227 1533.7 256.793C1530.29 262.359 1525.55 267.34 1519.49 271.734C1513.54 276.129 1506.46 279.547 1498.25 281.988L1561.1 369H1513.05L1454.75 288.287H1419.45V369H1382.53V160.846H1471.15C1475.55 160.846 1479.55 160.992 1483.17 161.285C1486.88 161.48 1491.32 162.066 1496.5 163.043C1501.77 163.922 1506.41 165.143 1510.41 166.705C1514.51 168.268 1518.71 170.562 1523.01 173.59C1527.4 176.617 1531.02 180.182 1533.85 184.283C1536.78 188.287 1539.17 193.414 1541.03 199.664C1542.88 205.816 1543.81 212.75 1543.81 220.465ZM1419.45 194.684V254.303H1453.43C1459.29 254.303 1464.46 254.107 1468.96 253.717C1473.45 253.326 1478.09 252.545 1482.87 251.373C1487.66 250.104 1491.56 248.395 1494.59 246.246C1497.72 244.098 1500.26 241.119 1502.21 237.311C1504.26 233.502 1505.29 229.01 1505.29 223.834C1505.29 204.4 1490.29 194.684 1460.31 194.684H1419.45ZM1777.3 366.064C1761.32 370.196 1747.95 372.262 1737.18 372.262C1726.85 372.262 1717.94 371.229 1710.44 369.163C1703.04 367.097 1697.23 364.488 1692.99 361.335C1688.75 358.073 1685.38 353.942 1682.88 348.94C1680.48 343.83 1678.91 338.883 1678.15 334.1C1677.39 329.316 1677 323.716 1677 317.302V242.282H1652.05V207.871H1677V161.718H1717.12V207.871H1776.32V242.282H1717.12V314.529C1717.12 317.247 1717.56 319.857 1718.43 322.357C1719.41 324.858 1720.93 327.359 1723 329.859C1725.06 332.36 1728.16 334.371 1732.29 335.894C1736.42 337.307 1741.32 338.014 1746.97 338.014C1749.9 338.014 1757.84 336.926 1770.78 334.752L1777.14 333.61L1783.5 364.434L1777.3 366.064Z" fill="black"/>
<path d="M1594.35 141.656H1635.51L1613.68 217.096H1572.52L1594.35 141.656Z" fill="#E0304A"/>
<path fill-rule="evenodd" clip-rule="evenodd" d="M4.26467 67.3565C3.4267 67.6635 2.36878 68.2466 1.91407 68.6528C-0.0472978 70.4038 -0.000590268 69.3776 0.00020817 110.701C0.000607389 146.777 0.0485137 149.532 0.698841 150.837C1.32482 152.093 46.5599 192.922 187.233 319.202C199.639 330.339 209.845 339.595 209.914 339.772C210.066 340.163 205.48 341.562 201.06 342.474C198.138 343.077 193.354 343.144 153.3 343.144H108.787L104.768 342.251C99.0353 340.977 95.0598 339.609 89.9398 337.151C74.3488 329.665 62.9838 316.717 57.4702 300.159C54.6709 291.752 54.5679 290.701 54.3175 267.989L54.0936 247.666L33.5338 229.118L12.974 210.571L12.8531 248.842C12.7245 289.429 12.8024 291.73 14.6156 300.92C17.7898 317.011 24.5889 331.932 34.676 344.945C38.3556 349.692 46.5491 358.036 51.2991 361.875C64.1084 372.226 79.741 379.712 95.2131 382.907C105.735 385.08 105.517 385.071 148.082 385.257C189.904 385.441 198.473 385.225 206.994 383.773C219.131 381.704 230.755 377.66 240.461 372.128L243.986 370.119L247.799 373.641C257.889 382.958 296.562 417.578 297.617 418.236C299.348 419.316 302.509 419.241 304.245 418.077C307.176 416.115 306.998 418.869 306.998 375.555C306.999 339.331 306.952 336.642 306.3 335.445C305.916 334.74 301.739 330.718 297.018 326.507C292.298 322.296 286.908 317.36 285.042 315.538C283.175 313.716 240.509 275.264 190.227 230.089C139.946 184.914 98.749 147.8 98.6796 147.613C98.5263 147.202 101.533 146.319 106.391 145.35C109.713 144.687 113.285 144.633 153.699 144.633H197.413L201.896 145.544C224.349 150.107 242.315 165.956 249.503 187.542C252.335 196.047 252.437 197.072 252.684 219.554L252.905 239.644L273.089 257.775C284.19 267.747 293.592 276.166 293.982 276.484C294.661 277.036 294.683 275.39 294.504 238.062C294.313 198.138 294.263 196.817 292.609 187.857C285.283 148.17 254.832 115.704 215.712 105.87C203.85 102.888 206.503 103.01 153.499 103.01C110.156 103.01 105.606 103.072 101.584 103.712C89.757 105.595 78.3413 109.361 68.3205 114.683L64.1834 116.881L63.1307 115.892C59.4711 112.455 10.0294 68.1869 9.38106 67.7667C8.08958 66.9298 5.90825 66.7549 4.26467 67.3565ZM59.1293 137.631C62.2257 138.211 65.8506 140.124 68.1493 142.392C72.1199 146.311 73.6425 150.337 73.385 156.238C73.2481 159.383 73.0373 160.304 71.9487 162.521C67.8954 170.775 59.1357 174.693 50.6256 172.058C42.3314 169.49 36.9048 160.844 38.3137 152.441C39.98 142.5 49.386 135.809 59.1293 137.631ZM258.366 314.804C266.044 318.421 270.184 326.447 268.513 334.479C266.982 341.841 261.27 347.314 253.803 348.574C246.264 349.846 238.481 345.569 235.026 338.256C233.812 335.687 233.742 335.289 233.742 330.937C233.742 326.583 233.812 326.187 235.028 323.612C236.508 320.48 239.995 316.728 242.743 315.312C245.95 313.66 247.52 313.332 251.707 313.443C255.226 313.536 256.015 313.697 258.366 314.804Z" fill="#E0304A"/>
</svg>
